<?xml version="1.0" encoding="UTF-8" standalone="no"?>
<svg
   id="a"
   viewBox="0 0 594 756"
   version="1.1"
   sodipodi:docname="A.svg"
   inkscape:version="1.2.2 (732a01da63, 2022-12-09)"
   xmlns:inkscape="http://www.inkscape.org/namespaces/inkscape"
   xmlns:sodipodi="http://sodipodi.sourceforge.net/DTD/sodipodi-0.dtd"
   xmlns="http://www.w3.org/2000/svg"
   xmlns:svg="http://www.w3.org/2000/svg">
  <sodipodi:namedview
     id="namedview4258"
     pagecolor="#ffffff"
     bordercolor="#000000"
     borderopacity="0.25"
     inkscape:showpageshadow="2"
     inkscape:pageopacity="0.0"
     inkscape:pagecheckerboard="0"
     inkscape:deskcolor="#d1d1d1"
     showgrid="false"
     inkscape:zoom="1.042328"
     inkscape:cx="163.09645"
     inkscape:cy="240.80711"
     inkscape:window-width="1920"
     inkscape:window-height="986"
     inkscape:window-x="-11"
     inkscape:window-y="-11"
     inkscape:window-maximized="1"
     inkscape:current-layer="a" />
  <defs
     id="defs3789">
    <style
       id="style3787">.b{letter-spacing:.05em;}.c{letter-spacing:0em;}.d{letter-spacing:.01em;}.e{letter-spacing:.05em;}.f{font-size:14.56px;}.g{letter-spacing:-.02em;}.h{letter-spacing:-.02em;}.i,.j{fill:#010101;}.k{fill:#e7e6e6;}.l,.m{fill:#fff;}.n{fill:#e7282e;}.o,.p{fill:#4d494a;}.q{fill:#2ea1db;}.q,.r,.s{font-size:14.43px;}.q,.r,.s,.t{font-family:Arial-BoldMT, Arial;}.r,.t,.u{fill:#231f20;}.s{fill:#ed2224;}.v{stroke-dasharray:0 0 12 12;}.v,.w,.x{stroke:#00aeef;stroke-miterlimit:10;stroke-width:2px;}.v,.w,.x,.y,.a`{fill:none;}.w{stroke-dasharray:0 0 11.9 11.9;}.aa{letter-spacing:-.02em;}.ab{letter-spacing:-.04em;}.ac{letter-spacing:-.04em;}.ad{letter-spacing:-.04em;}.u,.ae{font-family:Arial-Black, Arial Black;font-size:16.49px;}.ae{fill:#221f1f;}.af{letter-spacing:-.07em;}.ag{letter-spacing:-.06em;}.ah{letter-spacing:-.06em;}.ai{letter-spacing:0em;}.aj{letter-spacing:0em;}.y{stroke-dasharray:0 0 20 .07;}.y,.a`{stroke:#ed2224;}.ak{font-size:20.8px;}.p,.al,.m,.j{fill-rule:evenodd;}.al{fill:#b7d334;}.am{letter-spacing:0em;}</style>
  </defs>
  <path
     style="display:inline;fill:none;stroke:#ff0000"
     d="M 12.56803,744.01253 V 570.70048 m 0,-1.01759 V 397.38842 C 17.42814,337.43512 44.9613,271.06594 77.01524,226.0945 m 0.84799,-1.18719 c 32.22361,-44.43466 79.71104,-89.29332 152.21416,-127.452858 m 1.18718,-0.76319 C 303.76769,58.531729 399.25134,29.021686 528.14578,16.132242"
     id="path1142"
     sodipodi:nodetypes="ccccccccc" />
  <path
     style="display:inline;fill:none;stroke:#ff0000"
     d="m 296.44149,744.28294 -0.61843,-106.96487 m 0,-0.93278 -0.61843,-106.03208 c 0,0 0.67839,-51.21858 38.66833,-105.99872 m 0.59359,-0.7632 c 37.98994,-54.78013 97.77323,-112.69782 247.01943,-126.94404"
     id="path1144"
     sodipodi:nodetypes="ccccccc" />
  <path
     style="display:inline;fill:none;stroke:#ff0000"
     d="M 581.06034,296.98644 567.4925,155.20256 m -0.1696,-1.27199 -13.39824,-140.511895 -24.3692,2.574832"
     id="path1203"
     sodipodi:nodetypes="ccccc" />
  <path
     style="display:inline;fill:none;stroke:#ff0000"
     d="M 296.47498,744.04663 H 12.56802"
     id="path1256"
     sodipodi:nodetypes="cc" />
  <rect
     style="display:inline;fill:none;fill-rule:evenodd;stroke:#ff0000;stroke-width:0.967439"
     id="rect3524"
     width="4.7125049"
     height="94.052864"
     x="262.01456"
     y="525.34088"
     ry="0" />
  <rect
     style="display:inline;fill:none;fill-rule:evenodd;stroke:#ff0000;stroke-width:0.946951"
     id="rect1051"
     width="4.661437"
     height="61.945232"
     x="525.15466"
     y="222.41133" />
  <path
     style="display:inline;fill:none;fill-rule:evenodd;stroke:#ff0000"
     d="m 356.72202,368.55365 v -32.77452 l -4.74874,0.12533 -0.0272,32.60696 5.29079,0.005"
     id="path1657-0-1-1"
     sodipodi:nodetypes="ccccc" />
  <path
     style="display:inline;fill:none;fill-rule:evenodd;stroke:#ff0000"
     d="m 45.35022,512.07507 v -32.77452 l -4.74874,0.12533 -0.0272,32.60696 5.29079,0.005"
     id="path1657-0-1-1-7"
     sodipodi:nodetypes="ccccc" />
  <path
     style="display:inline;fill:none;fill-rule:evenodd;stroke:#ff0000"
     d="m 175.72919,185.00121 v -32.77452 l -4.74874,0.12533 -0.0272,32.60696 5.29079,0.005"
     id="path1657-0-1-1-76"
     sodipodi:nodetypes="ccccc" />
  <path
     style="display:inline;fill:none;fill-rule:evenodd;stroke:#ff0000"
     d="M 531.63836,84.325712 V 51.551191 l -4.74874,0.12533 -0.0272,32.606961 5.29079,0.005"
     id="path1657-0-1-1-3"
     sodipodi:nodetypes="ccccc" />
  <path
     style="display:inline;fill:none;fill-rule:evenodd;stroke:#ff0000"
     d="m 11.37772,43.197034 h 61.64584 l -0.12533,-4.81604 -61.77118,-0.0215"
     id="path6864"
     sodipodi:nodetypes="cccc" />
  <path
     style="display:inline;fill:none;fill-rule:evenodd;stroke:#ff0000"
     d="m 11.55395,38.600012 v -27.92251 l 50.5993,-0.043 m 0.88623,0 49.71307,-0.043 4.48679,15.23268 170.81759,0.89514 0.01,13.17884 m 0,0.88622 0.011,12.29261 -163.54166,-0.0608 4.21089,15.47043 -58.59685,0.0206 m -0.88623,0 -57.71063,0.0206 0.0367,-25.48929"
     id="path6866"
     sodipodi:nodetypes="cccccccccccccccc" />
  <path
     style="display:inline;fill:none;fill-rule:evenodd;stroke:#ff0000"
     d="M 118.42755,130.05825 H 71.5253 l -0.0519,-4.81604 46.95418,-0.0215"
     id="path6879"
     sodipodi:nodetypes="cccc" />
  <path
     style="display:inline;fill:none;fill-rule:evenodd;stroke:#ff0000"
     d="m 118.07584,129.93107 0.0215,25.4586 -53.90014,0.0367 m -0.88623,0 -53.01391,0.0367 v -28.9516 m 0,-0.88623 V 97.559882 h 53.87863 m 0.88623,0 h 52.99241 l -0.0671,27.851408"
     id="path6881"
     sodipodi:nodetypes="cccccccccccc" />
  <path
     style="display:inline;fill:none;fill-rule:evenodd;stroke:#ff0000"
     d="m 527.14202,679.24091 0.0519,-28.30764 -4.81604,0.12533 -0.0734,28.43298"
     id="path6891"
     sodipodi:nodetypes="cccc" />
  <path
     style="display:inline;fill:none;fill-rule:evenodd;stroke:#ff0000"
     d="m 541.65764,423.93597 -0.12533,20.53708 -4.81604,-0.12533 0.10383,-20.66242"
     id="path6891-0"
     sodipodi:nodetypes="cccc" />
  <path
     style="display:inline;fill:none;fill-rule:evenodd;stroke:#ff0000"
     d="m 522.41967,679.06472 h -59.2554 l 0.16466,-41.91678 17.73931,-4.98811 0.22601,-103.95788 m 0,-0.88623 0.22602,-103.07165 m 0,0 h 27.81856 m 0.88623,0 26.93234,-0.01 m 4.13594,0 26.43487,-0.011 m 0,0 -0.0304,92.04803 m 0,0.88623 -0.0304,91.1618 15.47043,-4.21089 0.0412,74.95698 -56.32085,-0.0367"
     id="path6893"
     sodipodi:nodetypes="cccccccccccccccccccc" />
  <path
     style="display:inline;fill:none;fill-rule:evenodd;stroke:#ff0000"
     d="m 553.49582,330.89035 v 30.00615 l -4.81604,0.0519 -0.0215,-30.05808"
     id="path7542"
     sodipodi:nodetypes="cccc" />
  <path
     style="display:inline;fill:none;fill-rule:evenodd;stroke:#ff0000"
     d="m 553.36864,331.24206 25.4586,-0.0215 0.0367,28.52006 m 0,0.88622 0.0367,27.63383 h -28.9516 m -0.88622,0 h -28.06537 v -28.49855 m 0,-0.88623 v -27.61232 l 27.85141,0.0671"
     id="path7544"
     sodipodi:nodetypes="cccccccccccc" />
  <path
     style="display:inline;fill:none;fill-rule:evenodd;stroke:#ff0000"
     d="M 423.66899,582.35402 V 424.13366 l -4.81604,-0.0519 -0.0107,14.27705 -2.88763,0.62128 -0.005,96.78838"
     id="path7557"
     sodipodi:nodetypes="cccccc" />
  <path
     style="display:inline;fill:none;fill-rule:evenodd;stroke:#ff0000"
     d="m 423.54181,582.12762 12.7293,0.01 m 0.88623,0 11.84307,0.01 0.0367,-89.0552 m 0,-0.88623 0.0367,-88.16897 h -57.90319 v 65.78469 m 0,0.88623 v 64.89846 l 25.01548,-0.0671"
     id="path7559"
     sodipodi:nodetypes="cccccccccccc" />
  <path
     style="display:inline;fill:none;fill-rule:evenodd;stroke:#ff0000"
     d="m 327.28821,720.24289 37.83284,0.12533 -0.12533,-4.81604 -37.95818,-0.14683"
     id="path7500"
     sodipodi:nodetypes="cccc" />
  <path
     style="display:inline;fill:none;fill-rule:evenodd;stroke:#ff0000"
     d="m 327.4644,715.7712 v -27.92251 l 33.99287,-0.043 m 1.00265,0 32.99022,-0.043 4.48679,15.23268 63.53377,0.45203 0.0105,13.40039 m 0,1.00265 0.0105,12.39774 -56.25784,-0.0608 4.21089,15.47043 -41.99043,0.0206 m -1.00265,0 -40.98777,0.0206 0.0367,-25.48929"
     id="path7502"
     sodipodi:nodetypes="cccccccccccccccc" />
  <path
     style="display:inline;fill:none;fill-rule:evenodd;stroke:#ff0000"
     d="m 401.81333,631.56012 h -37.62771 l -0.0519,-4.81604 37.67964,-0.0215"
     id="path6900"
     sodipodi:nodetypes="cccc" />
  <path
     style="display:inline;fill:none;fill-rule:evenodd;stroke:#ff0000"
     d="m 401.46162,631.43294 0.0215,25.4586 -37.29371,0.0367 m -1.00265,0 -36.29106,0.0367 v -28.9516 m 0,-1.00266 v -27.94893 h 37.27221 m 1.00265,0 h 36.26955 l -0.0671,27.85141"
     id="path6902"
     sodipodi:nodetypes="cccccccccccc" />
</svg>
