<?xml version="1.0" encoding="UTF-8" standalone="no"?>
<svg
   id="a"
   viewBox="0 0 594 756"
   version="1.1"
   sodipodi:docname="B.svg"
   inkscape:version="1.2.2 (732a01da63, 2022-12-09)"
   xmlns:inkscape="http://www.inkscape.org/namespaces/inkscape"
   xmlns:sodipodi="http://sodipodi.sourceforge.net/DTD/sodipodi-0.dtd"
   xmlns="http://www.w3.org/2000/svg"
   xmlns:svg="http://www.w3.org/2000/svg">
  <sodipodi:namedview
     id="namedview4258"
     pagecolor="#ffffff"
     bordercolor="#000000"
     borderopacity="0.25"
     inkscape:showpageshadow="2"
     inkscape:pageopacity="0.0"
     inkscape:pagecheckerboard="0"
     inkscape:deskcolor="#d1d1d1"
     showgrid="false"
     inkscape:zoom="0.70710678"
     inkscape:cx="-144.95689"
     inkscape:cy="500.6316"
     inkscape:window-width="1920"
     inkscape:window-height="986"
     inkscape:window-x="-11"
     inkscape:window-y="-11"
     inkscape:window-maximized="1"
     inkscape:current-layer="a" />
  <defs
     id="defs3789">
    <style
       id="style3787">.b{letter-spacing:.05em;}.c{letter-spacing:0em;}.d{letter-spacing:.01em;}.e{letter-spacing:.05em;}.f{font-size:14.56px;}.g{letter-spacing:-.02em;}.h{letter-spacing:-.02em;}.i,.j{fill:#010101;}.k{fill:#e7e6e6;}.l,.m{fill:#fff;}.n{fill:#e7282e;}.o,.p{fill:#4d494a;}.q{fill:#2ea1db;}.q,.r,.s{font-size:14.43px;}.q,.r,.s,.t{font-family:Arial-BoldMT, Arial;}.r,.t,.u{fill:#231f20;}.s{fill:#ed2224;}.v{stroke-dasharray:0 0 12 12;}.v,.w,.x{stroke:#00aeef;stroke-miterlimit:10;stroke-width:2px;}.v,.w,.x,.y,.a`{fill:none;}.w{stroke-dasharray:0 0 11.9 11.9;}.aa{letter-spacing:-.02em;}.ab{letter-spacing:-.04em;}.ac{letter-spacing:-.04em;}.ad{letter-spacing:-.04em;}.u,.ae{font-family:Arial-Black, Arial Black;font-size:16.49px;}.ae{fill:#221f1f;}.af{letter-spacing:-.07em;}.ag{letter-spacing:-.06em;}.ah{letter-spacing:-.06em;}.ai{letter-spacing:0em;}.aj{letter-spacing:0em;}.y{stroke-dasharray:0 0 20 .07;}.y,.a`{stroke:#ed2224;}.ak{font-size:20.8px;}.p,.al,.m,.j{fill-rule:evenodd;}.al{fill:#b7d334;}.am{letter-spacing:0em;}</style>
  </defs>
  <path
     style="display:inline;fill:none;fill-rule:evenodd;stroke:#ff0000"
     d="m 12.329807,55.457489 0.30258,-41.5882 62.31704,0.19874 m 0.88622,0 61.430803,0.0215 3.8994,16.12936 174.40962,-0.35449 v 12.49397 m 0,0.88623 v 11.60774 m 0,5.51459 v 23.73462 h -159.1665 l 4.60838,15.952111 H 86.772957 m 0.88623,0 -75.13063,-10e-6 -0.19876,-39.582901"
     id="path2046"
     sodipodi:nodetypes="cccccccccccccccccc" />
  <path
     style="display:inline;fill:none;fill-rule:evenodd;stroke:#ff0000"
     d="M 315.57547,54.807799 H 148.29868 l 1.37496,5.3656 165.54743,0.17724"
     id="path2048"
     sodipodi:nodetypes="cccc" />
  <path
     style="display:inline;fill:none;fill-rule:evenodd;stroke:#ff0000"
     d="m 11.874467,60.277659 h 58.13656 l -0.12533,-4.81604 -57.63524,0.10382"
     id="path2050"
     sodipodi:nodetypes="cccc" />
  <path
     style="display:inline;fill:none;fill-rule:evenodd;stroke:#ff0000"
     d="m 148.08354,126.26294 0.0304,21.1916 m 0,0.88623 0.0304,20.30537 m 0,3.89941 0.0608,39.90176 m 0,0.35449 H 80.047907 m -0.88623,0 h -67.271 v -86.49586 l 68.09641,-0.0215 m 0.88623,0 67.210173,-0.0215"
     id="path3304"
     sodipodi:nodetypes="cccccccccccccc" />
  <path
     style="display:inline;fill:none;fill-rule:evenodd;stroke:#ff0000"
     d="M 148.50445,173.0802 H 68.921177 l 0.12533,-4.81604 79.436443,-0.0734"
     id="path2050-0"
     sodipodi:nodetypes="cccc" />
  <path
     style="display:inline;fill:none;fill-rule:evenodd;stroke:#ff0000"
     d="m 12.186237,273.22587 h 89.720113 l -0.12533,-4.81604 -89.845453,-0.0215"
     id="path2050-9"
     sodipodi:nodetypes="cccc" />
  <path
     style="display:inline;fill:none;fill-rule:evenodd;stroke:#ff0000"
     d="m 12.083897,268.55544 v -28.01113 l 89.842003,0.001 m 0.88623,0 88.95579,0.002 4.48679,15.23268 63.78442,0.39381 0.0108,13.17883 m 0,0.88623 0.0108,12.29261 -56.50849,0.44053 4.21089,15.47043 -97.83957,0.0206 m -0.88623,0 -96.953333,0.0206 0.0367,-25.48929"
     id="path5619"
     sodipodi:nodetypes="cccccccccccccccc" />
  <path
     style="display:inline;fill:none;fill-rule:evenodd;stroke:#ff0000"
     d="m 197.79154,362.46566 h -97.23999 l 0.12533,-4.81604 97.11467,-0.0215"
     id="path2050-9-6"
     sodipodi:nodetypes="cccc" />
  <path
     style="display:inline;fill:none;fill-rule:evenodd;stroke:#ff0000"
     d="m 197.86774,362.26507 -0.0304,25.2921 -93.33085,0.0314 m -0.88624,0 -92.444613,0.0313 v -28.95159 m 0,-0.88623 v -28.06537 l 93.340683,0.0314 m 0.88622,0 92.45446,0.0313 0.0108,28.4091"
     id="path5691"
     sodipodi:nodetypes="cccccccccccc" />
  <path
     style="display:inline;fill:none;fill-rule:evenodd;stroke:#ff0000"
     d="m 11.441037,455.26057 h 61.64584 l -0.12533,-4.81604 -61.77118,-0.0215"
     id="path6268"
     sodipodi:nodetypes="cccc" />
  <path
     style="display:inline;fill:none;fill-rule:evenodd;stroke:#ff0000"
     d="m 11.589357,450.59014 v -27.92251 l 75.67955,-0.043 m 0.88623,0 74.793313,-0.043 4.48679,15.23268 63.78442,0.39381 0.0108,13.17883 m 0,0.88623 0.0108,12.29261 -56.50849,0.44053 4.21089,15.47043 -83.677103,0.0206 m -0.88622,0 -82.79088,0.0206 0.0367,-25.48929"
     id="path6270"
     sodipodi:nodetypes="cccccccccccccccc" />
  <path
     style="display:inline;fill:none;fill-rule:evenodd;stroke:#ff0000"
     d="M 169.80328,541.43131 H 72.563287 l 0.12533,-4.81604 97.114673,-0.0215"
     id="path6276"
     sodipodi:nodetypes="cccc" />
  <path
     style="display:inline;fill:none;fill-rule:evenodd;stroke:#ff0000"
     d="m 169.62882,541.48138 0.0215,25.28135 -79.069003,0.0367 m -0.88623,0 -78.18279,0.0367 v -28.9516 m 0,-0.88622 v -28.06537 h 79.09182 m 0.88623,0 h 78.205583 l -0.0671,28.47177"
     id="path6278"
     sodipodi:nodetypes="cccccccccccc" />
  <path
     style="fill:none;fill-rule:evenodd;stroke:#ff0000"
     d="m 362.09733,148.42336 13.34285,-10.90852 1.40646,35.81426 30.25868,19.67336 -33.98984,12.04146 -4.40451,17.06738 m -0.18354,0.70313 -4.40059,16.99707 -22.21733,-28.15326 -36.12436,2.20477 10.17587,-15.00942 m 0.41796,-0.61719 9.75792,-14.39223 -13.22864,-33.58039 34.59798,10.00628 13.96699,-11.37761"
     id="path5032"
     sodipodi:nodetypes="cccccccccccccccc" />
  <path
     style="fill:none;fill-rule:evenodd;stroke:#ff0000"
     d="m 238.08338,128.47098 13.34285,-10.90852 1.40646,35.81426 30.25868,19.67336 -33.98984,12.04146 -4.40451,17.06738 m -0.18354,0.70313 -4.40059,16.99707 -22.21733,-28.15326 -36.12436,2.20477 10.17587,-15.00942 m 0.41796,-0.61719 9.75792,-14.39223 -13.22864,-33.58039 34.59798,10.00628 13.96699,-11.37761"
     id="path5032-1"
     sodipodi:nodetypes="cccccccccccccccc" />
  <path
     style="fill:none;fill-rule:evenodd;stroke:#ff0000"
     d="m 534.49925,43.159576 13.34285,-10.90852 1.40646,35.81426 30.25868,19.67336 -33.98984,12.04146 -4.40451,17.067384 m -0.18354,0.70313 -4.40059,16.99707 -22.21733,-28.15326 -36.12436,2.20477 10.17587,-15.009424 m 0.41796,-0.61719 9.75792,-14.39223 -13.22864,-33.58039 34.59798,10.00628 13.96699,-11.37761"
     id="path5032-7"
     sodipodi:nodetypes="cccccccccccccccc" />
  <path
     style="fill:none;fill-rule:evenodd;stroke:#ff0000"
     d="m 410.75556,30.43166 13.34285,-10.90852 1.40646,35.81426 30.25868,19.67336 -33.98984,12.04146 -4.40451,17.06738 m -0.18354,0.70313 -4.40059,16.99707 -22.21733,-28.15326 -36.12436,2.20477 10.17587,-15.00942 m 0.41796,-0.61719 9.75792,-14.39223 -13.22864,-33.58039 34.59798,10.00628 13.96699,-11.37761"
     id="path5032-5"
     sodipodi:nodetypes="cccccccccccccccc" />
  <path
     style="fill:none;fill-rule:evenodd;stroke:#ff0000"
     d="m 483.58756,154.88245 13.34285,-10.90852 1.40646,35.81426 30.25868,19.67336 -33.98984,12.04146 -4.40451,17.06738 m -0.18354,0.70313 -4.40059,16.99707 -22.21733,-28.15326 -36.12436,2.20477 10.17587,-15.00942 m 0.41796,-0.61719 9.75792,-14.39223 -13.22864,-33.58039 34.59798,10.00628 13.96699,-11.37761"
     id="path5032-9"
     sodipodi:nodetypes="cccccccccccccccc" />
  <path
     style="fill:none;fill-rule:evenodd;stroke:#ff0000"
     d="m 389.54236,260.24136 13.34285,-10.90852 1.40646,35.81426 30.25868,19.67336 -33.98984,12.04146 -4.40451,17.06738 m -0.18354,0.70313 -4.40059,16.99707 -22.21733,-28.15326 -36.12436,2.20477 10.17587,-15.00942 m 0.41796,-0.61719 9.75792,-14.39223 -13.22864,-33.58039 34.59798,10.00628 13.96699,-11.37761"
     id="path5032-75"
     sodipodi:nodetypes="cccccccccccccccc" />
  <path
     style="fill:none;fill-rule:evenodd;stroke:#ff0000"
     d="m 509.0434,269.43375 13.34285,-10.90852 1.40646,35.81426 30.25868,19.67336 -33.98984,12.04146 -4.40451,17.06738 m -0.18354,0.70313 -4.40059,16.99707 -22.21733,-28.15326 -36.12436,2.20477 10.17587,-15.00942 m 0.41796,-0.61719 9.75792,-14.39223 -13.22864,-33.58039 34.59798,10.00628 13.96699,-11.37761"
     id="path5032-8"
     sodipodi:nodetypes="cccccccccccccccc" />
  <path
     style="fill:none;fill-rule:evenodd;stroke:#ff0000"
     d="m 280.64791,326.7094 13.34285,-10.90852 1.40646,35.81426 30.25868,19.67336 -33.98984,12.04146 -4.40451,17.06738 m -0.18354,0.70313 -4.40059,16.99707 -22.21733,-28.15326 -36.12436,2.20477 10.17587,-15.00942 m 0.41796,-0.61719 9.75792,-14.39223 -13.22864,-33.58039 34.59798,10.00628 13.96699,-11.37761"
     id="path5032-2"
     sodipodi:nodetypes="cccccccccccccccc" />
  <path
     style="fill:none;fill-rule:evenodd;stroke:#ff0000"
     d="m 411.46267,379.7424 13.34285,-10.90852 1.40646,35.81426 30.25868,19.67336 -33.98984,12.04146 -4.40451,17.06738 m -0.18354,0.70313 -4.40059,16.99707 -22.21733,-28.15326 -36.12436,2.20477 10.17587,-15.00942 m 0.41796,-0.61719 9.75792,-14.39223 -13.22864,-33.58039 34.59798,10.00628 13.96699,-11.37761"
     id="path5032-0"
     sodipodi:nodetypes="cccccccccccccccc" />
  <path
     style="fill:none;fill-rule:evenodd;stroke:#ff0000"
     d="m 313.17483,454.69572 13.34285,-10.90852 1.40646,35.81426 30.25868,19.67336 -33.98984,12.04146 -4.40451,17.06738 m -0.18354,0.70313 -4.40059,16.99707 -22.21733,-28.15326 -36.12436,2.20477 10.17587,-15.00942 m 0.41796,-0.61719 9.75792,-14.39223 -13.22864,-33.58039 34.59798,10.00628 13.96699,-11.37761"
     id="path5032-756"
     sodipodi:nodetypes="cccccccccccccccc" />
  <path
     style="fill:none;fill-rule:evenodd;stroke:#ff0000"
     d="m 416.41242,524.69929 13.34285,-10.90852 1.40646,35.81426 30.25868,19.67336 -33.98984,12.04146 -4.40451,17.06738 m -0.18354,0.70313 -4.40059,16.99707 -22.21733,-28.15326 -36.12436,2.20477 10.17587,-15.00942 m 0.41796,-0.61719 9.75792,-14.39223 -13.22864,-33.58039 34.59798,10.00628 13.96699,-11.37761"
     id="path5032-77"
     sodipodi:nodetypes="cccccccccccccccc" />
  <path
     style="fill:none;fill-rule:evenodd;stroke:#ff0000"
     d="m 260.84892,551.56935 13.34285,-10.90852 1.40646,35.81426 30.25868,19.67336 -33.98984,12.04146 -4.40451,17.06738 m -0.18354,0.70313 -4.40059,16.99707 -22.21733,-28.15326 -36.12436,2.20477 10.17587,-15.00942 m 0.41796,-0.61719 9.75792,-14.39223 -13.22864,-33.58039 34.59798,10.00628 13.96699,-11.37761"
     id="path5032-54"
     sodipodi:nodetypes="cccccccccccccccc" />
  <path
     style="fill:none;fill-rule:evenodd;stroke:#ff0000"
     d="m 535.91346,533.18457 13.34285,-10.90852 1.40646,35.81426 30.25868,19.67336 -33.98984,12.04146 -4.40451,17.06738 m -0.18354,0.70313 -4.40059,16.99707 -22.21733,-28.15326 -36.12436,2.20477 10.17587,-15.00942 m 0.41796,-0.61719 9.75792,-14.39223 -13.22864,-33.58039 34.59798,10.00628 13.96699,-11.37761"
     id="path5032-4"
     sodipodi:nodetypes="cccccccccccccccc" />
  <path
     style="fill:none;fill-rule:evenodd;stroke:#ff0000"
     d="m 355.60123,632.17952 13.34285,-10.90852 1.40646,35.81426 30.25868,19.67336 -33.98984,12.04146 -4.40451,17.06738 m -0.18354,0.70313 -4.40059,16.99707 -22.21733,-28.15326 -36.12436,2.20477 10.17587,-15.00942 m 0.41796,-0.61719 9.75792,-14.39223 -13.22864,-33.58039 34.59798,10.00628 13.96699,-11.37761"
     id="path5032-6"
     sodipodi:nodetypes="cccccccccccccccc" />
  <path
     style="fill:none;fill-rule:evenodd;stroke:#ff0000"
     d="m 480.75913,649.8572 13.34285,-10.90852 1.40646,35.81426 30.25868,19.67336 -33.98984,12.04146 -4.40451,17.06738 m -0.18354,0.70313 -4.40059,16.99707 -22.21733,-28.15326 -36.12436,2.20477 10.17587,-15.00942 m 0.41796,-0.61719 9.75792,-14.39223 -13.22864,-33.58039 34.59798,10.00628 13.96699,-11.37761"
     id="path5032-47"
     sodipodi:nodetypes="cccccccccccccccc" />
  <path
     style="fill:none;fill-rule:evenodd;stroke:#ff0000"
     d="m 208.52302,653.39272 13.34285,-10.90852 1.40646,35.81426 30.25868,19.67336 -33.98984,12.04146 -4.40451,17.06738 m -0.18354,0.70313 -4.40059,16.99707 -22.21733,-28.15326 -36.12436,2.20477 10.17587,-15.00942 m 0.41796,-0.61719 9.75792,-14.39223 -13.22864,-33.58039 34.59798,10.00628 13.96699,-11.37761"
     id="path5032-3"
     sodipodi:nodetypes="cccccccccccccccc" />
  <path
     style="fill:none;fill-rule:evenodd;stroke:#ff0000"
     d="m 535.91346,394.59165 13.34285,-10.90852 1.40646,35.81426 30.25868,19.67336 -33.98984,12.04146 -4.40451,17.06738 m -0.18354,0.70313 -4.40059,16.99707 -22.21733,-28.15326 -36.12436,2.20477 10.17587,-15.00942 m 0.41796,-0.61719 9.75792,-14.39223 -13.22864,-33.58039 34.59798,10.00628 13.96699,-11.37761"
     id="path5032-11"
     sodipodi:nodetypes="cccccccccccccccc" />
  <path
     style="fill:none;fill-rule:evenodd;stroke:#ff0000"
     d="M 121.26517,667.6237 150.5,592.75 H 81.25 m -0.905981,0 H 12 v 73.85723 m 0,0.88389 V 744 H 91.5 L 121,668.375"
     id="path372"
     sodipodi:nodetypes="cccccccccc" />
</svg>
